<svg width="310" height="310" viewBox="0 0 310 310" fill="none" xmlns="http://www.w3.org/2000/svg">
<g clip-path="url(#clip0_5_40)">
<path d="M301.826 8.1375C288.566 -5.12227 263.7 -2.18575 227.898 16.9894C223.19 19.5046 221.414 25.3691 223.946 30.0978C226.461 34.826 232.362 36.6066 237.054 34.0503C265.517 18.8046 283.276 16.9156 288.156 21.832C292.147 25.8414 293.432 42.2544 272.856 78.4917C270.233 83.1121 267.324 87.8583 264.252 92.6779C242.54 54.7574 201.768 29.0431 155.025 29.0431C85.6387 29.0431 29.6328 85.5576 29.6328 154.436C29.6328 201.172 55.3289 241.926 93.2676 263.662C88.4535 266.736 83.7073 269.644 79.0875 272.266C42.9108 292.84 26.4178 291.556 22.4278 287.566C17.5107 282.668 19.3829 264.964 34.6461 236.465C37.18 231.736 35.4023 225.875 30.6936 223.356C26.0224 220.784 20.1221 222.6 17.5852 227.309C-1.58998 263.11 -4.56283 287.977 8.73327 301.236C13.623 307.275 20.9976 310 30.2613 310C44.9016 310 64.2281 303.213 88.0533 289.668C96.2453 285.012 104.77 279.624 112.938 273.678C125.956 278.244 139.894 280.919 154.449 280.919C223.836 280.919 279.842 224.405 279.842 155.527C279.842 140.971 277.174 127.021 272.606 114.004C278.555 105.291 283.941 96.7721 288.597 89.1189C311.271 49.0853 315.873 22.2086 301.826 8.1375ZM48.4738 154.455C48.4738 95.7307 96.2635 47.9531 154.976 47.9531C197.958 47.9531 235.019 73.6129 251.79 110.377C234.207 134.904 211.975 160.921 186.702 186.182C161.418 211.466 135.401 233.699 110.898 251.27C74.1094 234.982 48.4738 197.443 48.4738 154.455ZM261.502 154.455C261.502 213.179 213.712 260.957 155 260.957C147.595 260.957 140.366 260.189 133.385 258.743C155.412 242.008 178.238 222.063 200.41 199.867C222.582 177.671 242.545 154.85 259.28 132.842C260.715 140.348 261.502 147.553 261.502 154.455Z" fill="black" fill-opacity="0.5"/>
</g>
<defs>
<clipPath id="clip0_5_40">
<rect width="310" height="310" fill="white"/>
</clipPath>
</defs>
</svg>
