<svg width="436" height="436" viewBox="0 0 436 436" fill="none" xmlns="http://www.w3.org/2000/svg">
<g clip-path="url(#clip0_1_7)">
<path d="M30.8095 254.873C32.5638 255.469 34.3946 256.15 36.3191 256.831C67.2564 267.987 121.007 287.317 218 287.317C314.993 287.317 368.727 267.987 399.638 256.831C401.597 256.15 403.47 255.469 405.173 254.873C407.558 242.951 408.75 230.603 408.75 218H367.875C360.381 218 354.25 211.869 354.25 204.375C354.25 196.881 360.381 190.75 367.875 190.75H421.949C429.102 190.75 435.063 196.285 435.489 203.438C435.83 208.292 436 213.146 436 218C436 235.031 434.041 251.722 430.295 267.646C429.613 270.712 427.825 273.522 425.27 275.395L423.823 276.502C422.63 277.439 421.268 278.12 419.905 278.631C416.584 279.738 412.837 281.101 408.58 282.548C376.476 293.874 319.762 314.567 218 314.567C128.756 314.567 73.5324 298.643 40.1512 287.147C67.8355 358.337 137.016 408.75 218 408.75C276.673 408.75 329.129 382.266 364.128 340.625H354.25C346.756 340.625 340.625 334.494 340.625 327C340.625 319.506 346.756 313.375 354.25 313.375H390.952C395.891 313.375 400.49 316.1 402.874 320.443C405.259 324.786 405.088 330.066 402.448 334.238C363.873 395.38 295.663 436 218 436C97.5891 436 0 338.411 0 218C0 97.5891 97.5891 0 218 0C289.361 0 352.632 34.2669 392.4 87.2C395.466 91.2875 395.977 96.8227 393.677 101.421C391.378 106.105 386.695 108.234 381.5 108.234H313.375C305.881 108.234 299.75 102.869 299.75 94.6086C299.75 87.7961 305.881 81.733 313.375 81.733H351.44C317.037 48.0111 269.945 27.25 218 27.25C112.662 27.25 27.25 112.662 27.25 218C27.25 230.603 28.4762 242.951 30.8095 254.873ZM183.938 136.25C183.938 147.576 174.826 156.688 163.5 156.688C152.174 156.688 143.062 147.576 143.062 136.25C143.062 124.924 152.174 115.812 163.5 115.812C174.826 115.812 183.938 124.924 183.938 136.25ZM238.438 136.25C238.438 177.636 204.886 211.188 163.5 211.188C122.114 211.188 88.5625 177.636 88.5625 136.25C88.5625 94.8641 122.114 61.3125 163.5 61.3125C204.886 61.3125 238.438 94.8641 238.438 136.25ZM163.5 88.5625C137.187 88.5625 115.812 109.937 115.812 136.25C115.812 162.563 137.187 183.938 163.5 183.938C189.813 183.938 211.188 162.563 211.188 136.25C211.188 109.937 189.813 88.5625 163.5 88.5625ZM381.5 136.25C388.994 136.25 395.125 142.381 395.125 149.875C395.125 157.369 388.994 163.5 381.5 163.5H313.375C305.881 163.5 299.75 157.369 299.75 149.875C299.75 142.381 305.881 136.25 313.375 136.25H381.5Z" fill="black" fill-opacity="0.5"/>
</g>
<defs>
<clipPath id="clip0_1_7">
<rect width="436" height="436" fill="white"/>
</clipPath>
</defs>
</svg>
