<svg width="255" height="292" viewBox="0 0 255 292" fill="none" xmlns="http://www.w3.org/2000/svg">
<g clip-path="url(#clip0_5_36)">
<path d="M134.66 150.169L110.233 156.05C106.875 156.858 103.465 154.775 102.658 151.419C101.85 148.064 103.937 144.657 107.296 143.848L131.723 137.967C135.081 137.159 138.49 139.242 139.298 142.598C140.106 145.953 138.019 149.36 134.66 150.169ZM206.735 106.03C214.54 104.756 221.947 110.193 223.81 117.934L225.775 126.093C227.556 133.49 223.436 141.703 215.988 144.464L125.65 178.155L67.2546 192.215C57.1403 194.65 46.9606 188.428 44.5279 178.324L38.6525 153.921C36.2198 143.817 42.4519 133.643 52.5662 131.208L110.962 117.148L206.735 106.03ZM211.597 120.874C211.22 119.311 209.756 118.292 208.175 118.471L113.48 129.451L55.5039 143.409C52.1452 144.218 50.0581 147.625 50.866 150.98L56.7414 175.383C57.5492 178.738 60.9582 180.822 64.3169 180.013L122.293 166.055L211.609 132.731C213.097 132.171 213.938 130.597 213.561 129.034L211.597 120.874ZM152.437 36.1651L153.906 42.2657C154.718 45.6364 152.627 49.028 149.268 49.8367C145.909 50.6454 142.504 48.577 141.693 45.2063L140.224 39.1057L79.1562 53.8087L85.0316 78.2113L91.1383 76.741C101.253 74.3059 111.432 80.5279 113.865 90.6321L116.803 102.833C117.611 106.189 115.524 109.596 112.165 110.404C108.806 111.213 105.397 109.129 104.589 105.774L101.652 93.5727C100.844 90.2174 97.4347 88.1337 94.076 88.9424L45.2221 100.705C41.8634 101.513 39.7763 104.92 40.5842 108.276L43.5218 120.477C44.3297 123.832 42.2426 127.239 38.8839 128.048L26.6704 130.989C23.3117 131.797 19.9027 129.714 19.0949 126.358C18.287 123.003 20.3741 119.596 23.7328 118.787L29.8395 117.317L28.3707 111.216C26.8467 104.887 28.7033 98.51 32.8373 94.0455L37.6685 63.7975L30.3023 65.5711C26.9436 66.3797 23.5382 64.3113 22.7267 60.9407C21.9152 57.5701 24.0059 54.1784 27.3646 53.3697L137.286 26.9043L135.817 20.8037C135.006 17.4346 137.096 14.0414 140.455 13.2327C143.814 12.424 147.219 14.494 148.031 17.8631L149.499 23.9637L161.713 21.0231C165.087 20.2108 168.477 22.2829 169.289 25.6535C170.1 29.0241 168.025 32.4121 164.651 33.2245L152.437 36.1651ZM46.5973 87.465L72.8181 81.1519L66.9428 56.7493L50.9126 60.6088L46.5973 87.465ZM202.378 243.588L203.846 249.688C204.654 253.044 202.567 256.451 199.209 257.259C195.85 258.068 192.441 255.984 191.633 252.629L190.164 246.528L80.2427 272.994C76.884 273.802 73.475 271.719 72.6672 268.363C71.8593 265.008 73.9464 261.601 77.3051 260.792L84.6713 259.019L66.6022 234.285C60.8892 232.191 56.3336 227.358 54.8097 221.028L53.3409 214.928L47.2341 216.398C43.8754 217.207 40.4664 215.123 39.6586 211.768C38.8507 208.412 40.9378 205.005 44.2965 204.197L56.51 201.256C59.8687 200.447 63.2777 202.531 64.0855 205.886L67.0232 218.088C67.8311 221.443 71.2401 223.527 74.5988 222.718L123.453 210.956C126.811 210.147 128.899 206.74 128.091 203.385L125.153 191.183C124.345 187.828 126.432 184.421 129.791 183.612C133.15 182.804 136.559 184.887 137.366 188.243L140.304 200.444C142.737 210.548 136.505 220.722 126.39 223.157L120.284 224.627L126.159 249.03L187.226 234.327L185.758 228.226C184.95 224.871 187.037 221.464 190.396 220.655C193.754 219.847 197.163 221.93 197.971 225.286L199.44 231.386L211.653 228.446C215.027 227.633 218.421 229.721 219.229 233.076C220.037 236.432 217.965 239.835 214.591 240.647L202.378 243.588ZM108.07 227.568L81.8494 233.881L97.9153 255.83L113.946 251.971L108.07 227.568Z" fill="black" fill-opacity="0.5"/>
</g>
<defs>
<clipPath id="clip0_5_36">
<rect width="251" height="201" fill="white" transform="translate(195.416) rotate(76.4627)"/>
</clipPath>
</defs>
</svg>
